<svg height="21" width="23" xmlns="http://www.w3.org/2000/svg">
                        <g fill="none" fill-rule="evenodd">
                            <path
                                d="m11.683 1.08a10.22 10.22 0 0 0 -4.793 1.95c-1.511 1.145-2.484 2.614-2.816 4.243-.1.492-.142 1.033-.187 1.603-.174 2.22-.416 3.574-2.304 3.574a.595.595 0 0 0 -.52.322.572.572 0 0 0 .055.61c3.51 4.256 10.896 3.579 11.004 3.579 1.435 0 2.95-.067 4.302-.552 2.4-.86 4.422-2.792 5.151-4.922.824-2.405.442-4.84-1.076-6.854-1.69-2.24-4.589-3.633-7.567-3.633-.417 0-.837.028-1.25.08">
                            </path>
                            <path
                                d="m13.366.255c1.562 0 3.131.38 4.536 1.102a9.672 9.672 0 0 1 3.464 2.972 8.556 8.556 0 0 1 1.49 3.578c.228 1.373.115 2.778-.337 4.176-.402 1.243-1.16 2.431-2.192 3.44a9.635 9.635 0 0 1 -3.283 2.114c-1.43.543-3 .61-4.484.61-.109 0-.913-.014-.992-.014-3.183 0-7.726-.393-10.422-4.033a1.193 1.193 0 0 1 -.112-1.233c.196-.4.597-.652 1.035-.652.797 0 1.092-.284 1.29-.711.289-.625.36-1.582.428-2.507.044-.59.09-1.202.195-1.754.357-1.858 1.399-3.527 3.013-4.823a10.444 10.444 0 0 1 5.05-2.175c.436-.06.88-.09 1.321-.09zm0 1.177c-.386 0-.776.017-1.166.07-3.17.438-6.438 2.688-7.083 6.048-.423 2.206.223 5.907-3.048 5.907 2.387 3.221 6.512 3.557 9.499 3.557h.992c1.189 0 2.746.033 4.08-.473 2.044-.775 4.057-2.587 4.78-4.823 1.795-5.552-2.843-10.286-8.054-10.286z"
                                fill="#3d3e3d"></path>
                            <path
                                d="m10.05 17.925c.11 1.3-.836 2.444-2.113 2.555-1.277.112-2.401-.85-2.51-2.15-.11-1.3.836-2.444 2.113-2.556 1.277-.111 2.401.851 2.51 2.151"
                                fill="#3d3e3d"></path>
                            <path
                                d="m8.415 18.102c0 .422-.29.764-.65.764-.359 0-.65-.342-.65-.764s.291-.765.65-.765c.36 0 .65.343.65.765"
                                fill="#515352"></path>
                            <path
                                d="m18.01 17.925c.11 1.3-.836 2.444-2.114 2.555-1.277.112-2.4-.85-2.51-2.15s.836-2.444 2.113-2.556c1.277-.111 2.402.851 2.511 2.151"
                                fill="#3d3e3d"></path>
                            <path
                                d="m16.375 18.102c0 .422-.291.764-.65.764-.36 0-.65-.342-.65-.764s.29-.765.65-.765c.359 0 .65.343.65.765"
                                fill="#515352"></path>
                            <path
                                d="m11.878 7.294a1.12 1.12 0 0 1 -1.11 1.13 1.12 1.12 0 0 1 -1.11-1.13c0-.624.497-1.13 1.11-1.13s1.11.506 1.11 1.13m5.189 0a1.12 1.12 0 0 1 -1.11 1.13 1.12 1.12 0 0 1 -1.111-1.13c0-.624.497-1.13 1.11-1.13s1.11.506 1.11 1.13m-3.744 6.059c-1.882 0-3.577-1.255-3.888-2.898a.588.588 0 0 1 .46-.69.579.579 0 0 1 .676.467c.183.966 1.32 1.984 2.835 1.943 1.578-.042 2.621-1.003 2.835-1.93a.579.579 0 0 1 .696-.437c.31.074.503.39.43.707-.175.756-.654 1.458-1.349 1.975-.723.538-1.616.836-2.582.861a4.372 4.372 0 0 1 -.113.002"
                                fill="#3d3e3d"></path>
                        </g>
                    </svg>